HIERARCHY
ROOT Hips
{
	OFFSET -13.091600 -28.302996 44.698402
	CHANNELS 6 Xposition Yposition Zposition Zrotation Xrotation Yrotation
	JOINT Chest
	{
		OFFSET -0.673000 0.623899 5.369202
		CHANNELS 6 Xposition Yposition Zposition Zrotation Xrotation Yrotation
		JOINT Chest2
		{
			OFFSET 0.000000 0.000000 4.415001
			CHANNELS 6 Xposition Yposition Zposition Zrotation Xrotation Yrotation
			JOINT Neck
			{
				OFFSET 0.000000 0.000002 10.273300
				CHANNELS 6 Xposition Yposition Zposition Zrotation Xrotation Yrotation
				JOINT Head
				{
					OFFSET 0.000000 0.000000 2.173897
					CHANNELS 6 Xposition Yposition Zposition Zrotation Xrotation Yrotation
					End Site
					{
						OFFSET 0.000000 0.000000 9.961800
					}
				}
			}
			JOINT LeftCollar
			{
				OFFSET 2.359900 -0.565201 5.928101
				CHANNELS 6 Xposition Yposition Zposition Zrotation Xrotation Yrotation
				JOINT LeftShoulder
				{
					OFFSET 5.443700 0.000000 0.000000
					CHANNELS 6 Xposition Yposition Zposition Zrotation Xrotation Yrotation
					JOINT LeftElbow
					{
						OFFSET 0.000000 0.000000 -10.615799
						CHANNELS 6 Xposition Yposition Zposition Zrotation Xrotation Yrotation
						JOINT LeftWrist
						{
							OFFSET 0.000000 -0.000002 -13.110302
							CHANNELS 6 Xposition Yposition Zposition Zrotation Xrotation Yrotation
							End Site
							{
								OFFSET 0.000000 0.000000 -2.173901
							}
						}
					}
				}
			}
			JOINT RightCollar
			{
				OFFSET -2.636600 -1.718800 6.889698
				CHANNELS 6 Xposition Yposition Zposition Zrotation Xrotation Yrotation
				JOINT RightShoulder
				{
					OFFSET -4.139101 0.000000 0.000000
					CHANNELS 6 Xposition Yposition Zposition Zrotation Xrotation Yrotation
					JOINT RightElbow
					{
						OFFSET 0.000000 0.000000 -10.471802
						CHANNELS 6 Xposition Yposition Zposition Zrotation Xrotation Yrotation
						JOINT RightWrist
						{
							OFFSET 0.000000 0.000000 -12.281898
							CHANNELS 6 Xposition Yposition Zposition Zrotation Xrotation Yrotation
							End Site
							{
								OFFSET 0.000000 -0.000002 -2.173901
							}
						}
					}
				}
			}
		}
	}
	JOINT LeftHip
	{
		OFFSET 2.273400 0.176701 -2.518002
		CHANNELS 6 Xposition Yposition Zposition Zrotation Xrotation Yrotation
		JOINT LeftKnee
		{
			OFFSET 0.000000 -0.000002 -20.456402
			CHANNELS 6 Xposition Yposition Zposition Zrotation Xrotation Yrotation
			JOINT LeftAnkle
			{
				OFFSET 0.000000 -0.000002 -16.635300
				CHANNELS 6 Xposition Yposition Zposition Zrotation Xrotation Yrotation
				End Site
				{
					OFFSET 0.000000 -8.812399 0.000001
				}
			}
		}
	}
	JOINT RightHip
	{
		OFFSET -1.914800 0.018101 -2.699299
		CHANNELS 6 Xposition Yposition Zposition Zrotation Xrotation Yrotation
		JOINT RightKnee
		{
			OFFSET 0.000000 -0.000002 -20.148901
			CHANNELS 6 Xposition Yposition Zposition Zrotation Xrotation Yrotation
			JOINT RightAnkle
			{
				OFFSET 0.000000 -0.000002 -16.838301
				CHANNELS 6 Xposition Yposition Zposition Zrotation Xrotation Yrotation
				End Site
				{
					OFFSET 0.000000 -8.328398 0.000001
				}
			}
		}
	}
}
MOTION
Frames: 8
Frame Time: 0.041667
-31.774996 -53.710800 22.330606 710.618018 17.058754 -20.113097 -0.673000 0.623898 5.369209 11.907329 -1.076531 7.017507 -0.000001 -0.000004 4.415006 -9.876435 -3.706990 -1.416352 0.000000 -0.000001 10.273311 4.899675 16.506786 9.136724 0.000002 -0.000005 2.173897 1.902954 -2.710724 1.087734 2.359904 -0.565198 5.928109 18.884507 -13.250241 -33.457999 5.443700 0.000001 -0.000005 -8.174618 29.043266 -83.161590 0.000012 -0.000007 -10.615794 550.377190 -187.079961 179.270923 0.000016 -0.000002 -13.110301 -113.809550 -197.536789 182.059184 -2.636604 -1.718800 6.889713 171.076691 -170.764824 210.346604 -4.139102 0.000009 -0.000005 112.676285 -396.115755 166.791621 0.000001 -0.000000 -10.471800 -13.229626 -26.918920 -15.387405 -0.000001 0.000005 -12.281899 42.269503 -1.043712 36.033401 2.273399 0.176703 -2.518003 -158.228080 -160.275662 -190.089369 0.000003 -0.000005 -20.456396 46.507304 139.241766 -81.920783 -0.000008 -0.000003 -16.635292 65.847299 9.164301 34.973816 -1.914799 0.018105 -2.699299 108.555495 219.496653 132.197519 0.000003 -0.000004 -20.148903 178.759137 2.726344 -144.886959 -0.000001 0.000001 -16.838308 -64.738725 19.648426 -30.501682
-31.630800 -53.695206 22.286804 710.812213 17.662832 -20.570452 -0.673003 0.623900 5.369209 13.330984 -1.621054 6.475179 0.000001 0.000006 4.415005 -11.358121 -3.697728 -1.581856 0.000005 -0.000002 10.273293 3.108726 15.603299 9.780991 -0.000003 -0.000010 2.173892 1.879323 -3.113492 0.819119 2.359901 -0.565204 5.928093 18.856645 -12.496007 -33.542817 5.443697 0.000001 0.000000 -7.545530 27.109880 -84.915999 0.000006 -0.000007 -10.615789 550.586521 -187.036357 179.286988 0.000002 -0.000006 -13.110299 -114.572557 -197.448393 181.736171 -2.636598 -1.718801 6.889693 170.449707 -170.277422 209.439213 -4.139092 -0.000002 0.000003 112.497471 -395.746297 166.615525 0.000003 -0.000001 -10.471800 -13.249980 -26.413679 -14.742297 -0.000007 -0.000016 -12.281896 41.128189 -0.899614 35.822262 2.273396 0.176702 -2.518003 -158.878888 -160.466648 -189.937657 0.000003 -0.000004 -20.456400 47.486207 139.487967 -81.581774 -0.000004 -0.000005 -16.635305 63.855623 11.292860 34.953886 -1.914805 0.018097 -2.699296 106.013729 219.336103 130.153271 0.000000 0.000000 -20.148909 180.021807 1.999852 -144.737173 -0.000004 -0.000000 -16.838305 -64.847892 19.834798 -29.864002
-31.481596 -53.671497 22.231802 711.056953 18.227439 -20.970885 -0.672991 0.623895 5.369205 13.587960 -2.249252 5.755704 -0.000000 -0.000004 4.415008 -11.754901 -3.660340 -1.650448 -0.000002 0.000001 10.273303 -0.159594 14.097591 11.342519 -0.000001 -0.000010 2.173896 3.307427 -3.532380 -0.169112 2.359894 -0.565200 5.928108 18.982696 -12.010940 -33.642107 5.443693 0.000001 -0.000007 -7.161215 24.970391 -86.678563 0.000009 -0.000003 -10.615789 550.947374 -187.131569 179.257563 0.000005 -0.000005 -13.110291 -115.311174 -197.013091 181.410234 -2.636607 -1.718795 6.889695 169.883183 -169.943795 208.655599 -4.139097 -0.000005 -0.000001 112.439360 -395.505956 166.755175 0.000001 0.000005 -10.471798 -13.217668 -25.934075 -14.127694 -0.000001 -0.000004 -12.281898 40.107182 -0.818643 35.557405 2.273406 0.176698 -2.518004 -159.557044 -160.692413 -189.858837 0.000001 -0.000003 -20.456396 48.314627 139.739482 -81.213681 -0.000010 -0.000007 -16.635296 62.056701 13.382769 35.048771 -1.914793 0.018109 -2.699301 103.451705 219.002270 128.028822 -0.000007 -0.000001 -20.148901 181.238455 1.131193 -144.612494 -0.000000 0.000004 -16.838306 -65.079142 19.981324 -29.724024
-31.331900 -53.639503 22.167601 711.311910 18.712746 -21.308751 -0.672998 0.623898 5.369204 13.792023 -2.751025 4.990579 -0.000003 -0.000006 4.415005 -12.123647 -3.652524 -1.696500 0.000004 -0.000002 10.273311 -0.807039 13.040400 10.840641 -0.000000 -0.000006 2.173897 2.243656 -3.948697 0.169461 2.359904 -0.565210 5.928112 19.095206 -11.588320 -33.717024 5.443700 -0.000008 -0.000010 -6.777860 22.370953 -88.547740 0.000002 -0.000001 -10.615799 551.625366 -187.312897 179.154154 0.000002 -0.000012 -13.110295 -117.624901 -196.362010 182.082994 -2.636595 -1.718810 6.889702 169.316414 -169.596766 207.816879 -4.139093 0.000001 0.000000 112.394608 -395.342551 166.916860 0.000008 0.000002 -10.471792 -13.150173 -25.545961 -13.587472 -0.000003 -0.000014 -12.281896 39.206123 -0.718172 35.296836 2.273404 0.176699 -2.518004 -160.358348 -161.039318 -189.886034 0.000002 0.000000 -20.456394 49.084533 140.028918 -80.829094 -0.000005 -0.000004 -16.635296 60.423952 15.097457 36.197622 -1.914794 0.018097 -2.699304 101.014113 218.565507 125.961242 0.000004 -0.000002 -20.148901 182.355847 0.161731 -144.522814 -0.000001 0.000005 -16.838297 -65.358763 20.078811 -29.982300
-31.183599 -53.597900 22.098305 711.530640 19.054037 -21.652439 -0.673001 0.623900 5.369201 13.951078 -2.984063 4.273528 -0.000007 -0.000001 4.415005 -12.471150 -3.683478 -1.746975 -0.000001 -0.000001 10.273296 -1.377558 11.827377 10.173341 0.000001 -0.000009 2.173908 0.983253 -4.302457 0.448066 2.359894 -0.565206 5.928093 16.786300 -13.092110 -34.298358 5.443701 -0.000005 -0.000001 -5.901359 22.362671 -90.119483 -0.000006 -0.000005 -10.615793 552.437229 -187.760234 179.080334 0.000007 -0.000003 -13.110295 -120.223883 -195.504616 181.308956 -2.636599 -1.718801 6.889690 168.643122 -169.204358 206.898014 -4.139096 0.000001 -0.000001 112.624622 -395.229415 167.216978 0.000000 -0.000002 -10.471806 -12.997246 -25.216152 -13.146368 0.000002 -0.000011 -12.281903 38.304927 -0.579785 35.087382 2.273397 0.176702 -2.518005 -161.209991 -161.594503 -189.924120 0.000005 -0.000012 -20.456394 49.724071 140.365565 -80.409488 -0.000008 -0.000006 -16.635300 59.327522 16.662308 36.685523 -1.914801 0.018104 -2.699304 98.981319 218.144043 124.215186 0.000003 0.000000 -20.148907 183.390388 -0.693333 -144.486122 0.000000 0.000008 -16.838303 -65.595477 20.135225 -30.469846
-31.037794 -53.545601 22.024801 711.724290 19.306153 -22.002589 -0.673002 0.623899 5.369213 14.072356 -3.015827 3.648209 -0.000000 -0.000000 4.414997 -12.824195 -3.717009 -1.781273 -0.000006 0.000002 10.273302 -4.114511 9.965546 10.800437 -0.000001 -0.000004 2.173892 1.799868 -4.619811 -0.381637 2.359892 -0.565208 5.928106 16.806225 -13.471901 -34.661260 5.443707 -0.000002 -0.000009 -6.264918 19.130334 -91.798945 0.000002 -0.000007 -10.615794 556.107063 -188.146590 178.773180 0.000006 -0.000009 -13.110292 -126.488615 -194.217727 179.826354 -2.636605 -1.718802 6.889696 167.999390 -168.706806 205.869005 -4.139098 0.000006 -0.000001 112.810130 -395.217148 167.399126 -0.000001 -0.000002 -10.471797 -12.758477 -25.072373 -12.733291 0.000000 0.000005 -12.281908 37.545898 -0.588144 34.904722 2.273399 0.176708 -2.517999 -162.156382 -162.305799 -189.938026 0.000001 -0.000005 -20.456394 50.265688 140.778422 -79.941210 -0.000012 -0.000005 -16.635298 58.561332 17.879661 37.195933 -1.914797 0.018104 -2.699299 97.240659 217.777180 122.688147 -0.000003 -0.000005 -20.148899 184.513462 -1.280061 -144.505001 -0.000003 -0.000001 -16.838301 -65.666689 20.267806 -30.709193
-30.896400 -53.485405 21.953102 711.878215 19.551283 -22.342800 -0.673001 0.623896 5.369213 14.221457 -3.013533 3.069145 -0.000001 -0.000004 4.415003 -13.129594 -3.764881 -1.832972 0.000001 0.000002 10.273308 -5.818176 8.346783 10.696238 -0.000001 -0.000010 2.173901 1.549126 -4.940070 -0.625138 2.359907 -0.565205 5.928108 16.779792 -13.778113 -35.077714 5.443700 -0.000003 -0.000001 -6.602585 15.009071 -93.470668 -0.000002 -0.000008 -10.615797 551.539852 -188.266446 179.560359 0.000004 -0.000001 -13.110296 -125.997524 -192.973485 178.896424 -2.636598 -1.718800 6.889702 167.418141 -168.322854 205.048248 -4.139094 -0.000006 -0.000008 112.961131 -395.326568 167.676349 -0.000004 0.000002 -10.471800 -12.692344 -24.931387 -12.434765 0.000000 0.000001 -12.281897 36.991273 -0.666372 34.833415 2.273399 0.176705 -2.517997 -163.127635 -163.076135 -189.888712 0.000001 -0.000010 -20.456396 50.718946 141.303117 -79.430606 -0.000008 -0.000004 -16.635300 58.053835 18.762332 37.646213 -1.914797 0.018102 -2.699295 95.799837 217.532332 121.316877 -0.000002 -0.000000 -20.148901 185.477175 -1.764148 -144.546187 0.000000 0.000001 -16.838295 -65.706556 20.415295 -30.911664
-30.760994 -53.418297 21.884502 711.961762 19.801922 -22.681948 -0.673003 0.623898 5.369210 14.431298 -2.996646 2.559963 0.000001 0.000002 4.415009 -13.373111 -3.785548 -1.874209 -0.000000 -0.000008 10.273310 -7.592911 6.745966 10.691307 -0.000004 0.000003 2.173902 1.320511 -5.243052 -0.935791 2.359898 -0.565208 5.928100 16.680574 -13.988353 -35.485773 5.443697 -0.000003 0.000002 -7.028175 10.626377 -95.020000 0.000003 -0.000009 -10.615791 554.983797 -188.260750 179.430531 0.000001 -0.000008 -13.110300 -133.500419 -191.502180 177.134946 -2.636601 -1.718811 6.889702 167.099922 -168.172617 204.220812 -4.139095 0.000006 0.000001 112.742565 -395.322579 167.938629 -0.000007 0.000000 -10.471800 -12.774610 -24.851404 -12.221327 0.000003 -0.000006 -12.281898 36.539921 -0.767072 34.792331 2.273396 0.176702 -2.518000 -163.982597 -163.848534 -189.727342 0.000001 -0.000001 -20.456390 51.042246 142.000794 -78.903985 -0.000006 -0.000008 -16.635302 57.739052 19.363706 38.006991 -1.914803 0.018108 -2.699302 94.618105 217.399143 120.057677 -0.000004 0.000004 -20.148911 186.331481 -2.150704 -144.601115 -0.000001 0.000002 -16.838297 -65.686401 20.606116 -31.022924
